<?xml version="1.0" encoding="UTF-8" standalone="no"?>
<svg width="125px" height="30px" viewBox="0 0 125 30" version="1.1" xmlns="http://www.w3.org/2000/svg" xmlns:xlink="http://www.w3.org/1999/xlink" xmlns:sketch="http://www.bohemiancoding.com/sketch/ns">
    <!-- Generator: Sketch 3.5.2 (25235) - http://www.bohemiancoding.com/sketch -->
    <title>Button</title>
    <desc>Created with Sketch.</desc>
    <defs></defs>
    <g id="Page-1" stroke="none" stroke-width="1" fill="none" fill-rule="evenodd" sketch:type="MSPage">
        <g id="Home" sketch:type="MSArtboardGroup" transform="translate(-350.000000, -567.000000)" fill="#FFFFFF">
            <g id="Labeling" sketch:type="MSLayerGroup" transform="translate(350.000000, 529.000000)">
                <g id="Button" transform="translate(0.000000, 38.000000)" sketch:type="MSShapeGroup">
                    <path d="M0,0 L125,0 L125,30 L0,30 L0,0 Z M30.1268572,9.44342857 L32.4565715,9.44342857 C33.3514331,9.44342857 34.0354262,9.69285465 34.5085715,10.1917143 C34.9817167,10.6905739 35.2182857,11.3874241 35.2182857,12.2822857 L35.2182857,17.42 C35.2182857,18.4485766 34.9688597,19.2071404 34.47,19.6957143 C33.9711404,20.1842882 33.253719,20.4285714 32.3177143,20.4285714 L30.1268572,20.4285714 L30.1268572,9.44342857 Z M31.7005715,18.9474286 L32.4257143,18.9474286 C32.8680022,18.9474286 33.1817134,18.8368582 33.3668572,18.6157143 C33.552001,18.3945703 33.6445715,18.0474309 33.6445715,17.5742857 L33.6445715,12.2822857 C33.6445715,11.8502836 33.5571438,11.5160012 33.3822857,11.2794286 C33.2074277,11.042856 32.8885738,10.9245714 32.4257143,10.9245714 L31.7005715,10.9245714 L31.7005715,18.9474286 Z M38.3668572,12.0354286 C38.3668572,11.5931406 38.4439993,11.2022874 38.5982857,10.8628571 C38.7525722,10.5234269 38.955713,10.243144 39.2077143,10.022 C39.4597156,9.80085604 39.7425699,9.63371485 40.0562857,9.52057143 C40.3700016,9.40742801 40.6862841,9.35085714 41.0051429,9.35085714 C41.3240016,9.35085714 41.6402842,9.40742801 41.954,9.52057143 C42.2677159,9.63371485 42.5505702,9.80085604 42.8025715,10.022 C43.0545727,10.243144 43.2577135,10.5234269 43.412,10.8628571 C43.5662865,11.2022874 43.6434286,11.5931406 43.6434286,12.0354286 L43.6434286,17.8365714 C43.6434286,18.2891451 43.5662865,18.6825698 43.412,19.0168571 C43.2577135,19.3511445 43.0545727,19.628856 42.8025715,19.85 C42.5505702,20.071144 42.2677159,20.2382851 41.954,20.3514286 C41.6402842,20.464572 41.3240016,20.5211429 41.0051429,20.5211429 C40.6862841,20.5211429 40.3700016,20.464572 40.0562857,20.3514286 C39.7425699,20.2382851 39.4597156,20.071144 39.2077143,19.85 C38.955713,19.628856 38.7525722,19.3511445 38.5982857,19.0168571 C38.4439993,18.6825698 38.3668572,18.2891451 38.3668572,17.8365714 L38.3668572,12.0354286 Z M39.9405715,17.8365714 C39.9405715,18.2171448 40.045999,18.4974277 40.2568572,18.6774286 C40.4677154,18.8574295 40.7171414,18.9474286 41.0051429,18.9474286 C41.2931443,18.9474286 41.5425704,18.8574295 41.7534286,18.6774286 C41.9642868,18.4974277 42.0697143,18.2171448 42.0697143,17.8365714 L42.0697143,12.0354286 C42.0697143,11.6548552 41.9642868,11.3745723 41.7534286,11.1945714 C41.5425704,11.0145705 41.2931443,10.9245714 41.0051429,10.9245714 C40.7171414,10.9245714 40.4677154,11.0145705 40.2568572,11.1945714 C40.045999,11.3745723 39.9405715,11.6548552 39.9405715,12.0354286 L39.9405715,17.8365714 Z M53.1331429,20.4285714 L51.652,20.4285714 L50.4485714,13.3005714 L50.4177143,13.3005714 L49.2297143,20.4285714 L47.7485714,20.4285714 L46.1131429,9.44342857 L47.7794286,9.44342857 L48.5662857,16.4171429 L48.5971429,16.4171429 L49.8314286,9.44342857 L51.0348572,9.44342857 L52.3154286,16.5868571 L52.3462857,16.5868571 L53.1022857,9.44342857 L54.7685714,9.44342857 L53.1331429,20.4285714 Z M57.4542857,9.44342857 L58.9662857,9.44342857 L61.3422857,16.0622857 L61.3731429,16.0622857 L61.3731429,9.44342857 L62.9468571,9.44342857 L62.9468571,20.4285714 L61.4657143,20.4285714 L59.0588571,13.8251429 L59.028,13.8251429 L59.028,20.4285714 L57.4542857,20.4285714 L57.4542857,9.44342857 Z M66.1262857,9.44342857 L67.7,9.44342857 L67.7,18.8548571 L70.8165714,18.8548571 L70.8165714,20.4285714 L66.1262857,20.4285714 L66.1262857,9.44342857 Z M73.5022857,12.0354286 C73.5022857,11.5931406 73.5794278,11.2022874 73.7337143,10.8628571 C73.8880008,10.5234269 74.0911416,10.243144 74.3431428,10.022 C74.5951441,9.80085604 74.8779984,9.63371485 75.1917143,9.52057143 C75.5054301,9.40742801 75.8217127,9.35085714 76.1405714,9.35085714 C76.4594302,9.35085714 76.7757127,9.40742801 77.0894286,9.52057143 C77.4031444,9.63371485 77.6859987,9.80085604 77.938,10.022 C78.1900012,10.243144 78.3931421,10.5234269 78.5474286,10.8628571 C78.701715,11.2022874 78.7788571,11.5931406 78.7788571,12.0354286 L78.7788571,17.8365714 C78.7788571,18.2891451 78.701715,18.6825698 78.5474286,19.0168571 C78.3931421,19.3511445 78.1900012,19.628856 77.938,19.85 C77.6859987,20.071144 77.4031444,20.2382851 77.0894286,20.3514286 C76.7757127,20.464572 76.4594302,20.5211429 76.1405714,20.5211429 C75.8217127,20.5211429 75.5054301,20.464572 75.1917143,20.3514286 C74.8779984,20.2382851 74.5951441,20.071144 74.3431428,19.85 C74.0911416,19.628856 73.8880008,19.3511445 73.7337143,19.0168571 C73.5794278,18.6825698 73.5022857,18.2891451 73.5022857,17.8365714 L73.5022857,12.0354286 Z M75.076,17.8365714 C75.076,18.2171448 75.1814275,18.4974277 75.3922857,18.6774286 C75.6031439,18.8574295 75.85257,18.9474286 76.1405714,18.9474286 C76.4285729,18.9474286 76.6779989,18.8574295 76.8888571,18.6774286 C77.0997153,18.4974277 77.2051428,18.2171448 77.2051428,17.8365714 L77.2051428,12.0354286 C77.2051428,11.6548552 77.0997153,11.3745723 76.8888571,11.1945714 C76.6779989,11.0145705 76.4285729,10.9245714 76.1405714,10.9245714 C75.85257,10.9245714 75.6031439,11.0145705 75.3922857,11.1945714 C75.1814275,11.3745723 75.076,11.6548552 75.076,12.0354286 L75.076,17.8365714 Z M84.1491428,12.6062857 L84.1182857,12.6062857 L83.3468571,16.5868571 L84.9205714,16.5868571 L84.1491428,12.6062857 Z M83.4857143,9.44342857 L84.7971428,9.44342857 L87.2502857,20.4285714 L85.6765714,20.4285714 L85.2137143,18.068 L83.0691428,18.068 L82.6062857,20.4285714 L81.0325714,20.4285714 L83.4857143,9.44342857 Z M89.7817143,9.44342857 L92.1114285,9.44342857 C93.0062902,9.44342857 93.6902833,9.69285465 94.1634285,10.1917143 C94.6365738,10.6905739 94.8731428,11.3874241 94.8731428,12.2822857 L94.8731428,17.42 C94.8731428,18.4485766 94.6237167,19.2071404 94.1248571,19.6957143 C93.6259975,20.1842882 92.9085761,20.4285714 91.9725714,20.4285714 L89.7817143,20.4285714 L89.7817143,9.44342857 Z M91.3554285,18.9474286 L92.0805714,18.9474286 C92.5228593,18.9474286 92.8365705,18.8368582 93.0217143,18.6157143 C93.206858,18.3945703 93.2994285,18.0474309 93.2994285,17.5742857 L93.2994285,12.2822857 C93.2994285,11.8502836 93.2120008,11.5160012 93.0371428,11.2794286 C92.8622848,11.042856 92.5434309,10.9245714 92.0805714,10.9245714 L91.3554285,10.9245714 L91.3554285,18.9474286 Z" id="Rectangle-66"></path>
                </g>
            </g>
        </g>
    </g>
</svg>