<?xml version="1.0" encoding="UTF-8" standalone="no"?>
<svg width="267px" height="51px" viewBox="0 0 267 51" version="1.1" xmlns="http://www.w3.org/2000/svg" xmlns:xlink="http://www.w3.org/1999/xlink" xmlns:sketch="http://www.bohemiancoding.com/sketch/ns">
    <!-- Generator: Sketch 3.5.2 (25235) - http://www.bohemiancoding.com/sketch -->
    <title>PHONO</title>
    <desc>Created with Sketch.</desc>
    <defs></defs>
    <g id="Page-1" stroke="none" stroke-width="1" fill="none" fill-rule="evenodd" sketch:type="MSPage">
        <g id="Home" sketch:type="MSArtboardGroup" transform="translate(-338.000000, -202.000000)" fill="#FFFFFF">
            <g id="Menu" sketch:type="MSLayerGroup" transform="translate(338.000000, 202.000000)">
                <g id="Logo" sketch:type="MSShapeGroup">
                    <path d="M0.701634122,0.48200288 L11.3424397,0.48200288 C13.2897864,0.48200288 15.0052804,0.737008742 16.4889731,1.24702812 C17.9726658,1.75704749 19.3172422,2.66115918 20.5227425,3.95939032 C21.7282429,5.25762145 22.5628075,6.77606545 23.0264615,8.51476786 C23.4901155,10.2534703 23.721939,12.6064789 23.721939,15.5738644 C23.721939,17.7530381 23.594436,19.6192173 23.3394263,21.1724581 C23.0844167,22.725699 22.5396314,24.1745959 21.7050542,25.5191924 C20.7313809,27.1419814 19.4331692,28.4054195 17.8103803,29.3095447 C16.1875914,30.21367 14.0548151,30.6657258 11.4119874,30.6657258 L7.7955045,30.6657258 L7.7955045,50 L0.701634122,50 L0.701634122,0.48200288 Z M7.7955045,23.989142 L11.2033442,23.989142 C12.6406715,23.989142 13.7534244,23.7805008 14.5416361,23.3632122 C15.3298479,22.9459236 15.9094067,22.377956 16.2803298,21.6592924 C16.651253,20.9406287 16.8714854,20.0712905 16.9410335,19.0512518 C17.0105816,18.0312131 17.0453551,16.8952778 17.0453551,15.6434121 C17.0453551,14.4842772 17.0105816,13.3831155 16.9410335,12.339894 C16.8714854,11.2966726 16.6628442,10.3925609 16.3151037,9.62753184 C15.9673632,8.86250278 15.422578,8.25976165 14.6807316,7.81929037 C13.9388853,7.3788191 12.8724971,7.15858676 11.4815352,7.15858676 L7.7955045,7.15858676 L7.7955045,23.989142 Z M30.8487996,0.48200288 L37.9426699,0.48200288 L37.9426699,21.6940663 L46.7056863,21.6940663 L46.7056863,0.48200288 L53.7995567,0.48200288 L53.7995567,50 L46.7056863,50 L46.7056863,27.9533636 L37.9426699,27.9533636 L37.9426699,50 L30.8487996,50 L30.8487996,0.48200288 Z M61.9000858,12.1660247 C61.9000858,10.1723126 62.247821,8.41045389 62.943302,6.88039577 C63.638783,5.35033764 64.5544858,4.08689951 65.6904381,3.09004346 C66.8263903,2.09318741 68.1014196,1.339761 69.5155642,0.829741624 C70.9297089,0.319722249 72.3554235,0.0647163873 73.7927508,0.0647163873 C75.2300781,0.0647163873 76.6557927,0.319722249 78.0699373,0.829741624 C79.484082,1.339761 80.7591113,2.09318741 81.8950635,3.09004346 C83.0310158,4.08689951 83.9467186,5.35033764 84.6421996,6.88039577 C85.3376806,8.41045389 85.6854158,10.1723126 85.6854158,12.1660247 L85.6854158,38.3159782 C85.6854158,40.3560557 85.3376806,42.1295056 84.6421996,43.636381 C83.9467186,45.1432564 83.0310158,46.3951034 81.8950635,47.3919594 C80.7591113,48.3888155 79.484082,49.1422419 78.0699373,49.6522613 C76.6557927,50.1622806 75.2300781,50.4172865 73.7927508,50.4172865 C72.3554235,50.4172865 70.9297089,50.1622806 69.5155642,49.6522613 C68.1014196,49.1422419 66.8263903,48.3888155 65.6904381,47.3919594 C64.5544858,46.3951034 63.638783,45.1432564 62.943302,43.636381 C62.247821,42.1295056 61.9000858,40.3560557 61.9000858,38.3159782 L61.9000858,12.1660247 Z M68.9939561,38.3159782 C68.9939561,40.0314979 69.4691943,41.2949361 70.419685,42.1063305 C71.3701756,42.917725 72.4945197,43.3234161 73.7927508,43.3234161 C75.0909819,43.3234161 76.215326,42.917725 77.1658166,42.1063305 C78.1163073,41.2949361 78.5915455,40.0314979 78.5915455,38.3159782 L78.5915455,12.1660247 C78.5915455,10.450505 78.1163073,9.18706682 77.1658166,8.37567236 C76.215326,7.56427791 75.0909819,7.15858676 73.7927508,7.15858676 C72.4945197,7.15858676 71.3701756,7.56427791 70.419685,8.37567236 C69.4691943,9.18706682 68.9939561,10.450505 68.9939561,12.1660247 L68.9939561,38.3159782 Z M93.5077539,0.48200288 L100.323433,0.48200288 L111.033787,30.3179871 L111.172882,30.3179871 L111.172882,0.48200288 L118.266752,0.48200288 L118.266752,50 L111.590169,50 L100.74072,20.2335635 L100.601624,20.2335635 L100.601624,50 L93.5077539,50 L93.5077539,0.48200288 Z M126.089091,12.1660247 C126.089091,10.1723126 126.436826,8.41045389 127.132307,6.88039577 C127.827788,5.35033764 128.743491,4.08689951 129.879443,3.09004346 C131.015395,2.09318741 132.290424,1.339761 133.704569,0.829741624 C135.118714,0.319722249 136.544428,0.0647163873 137.981756,0.0647163873 C139.419083,0.0647163873 140.844798,0.319722249 142.258942,0.829741624 C143.673087,1.339761 144.948116,2.09318741 146.084068,3.09004346 C147.220021,4.08689951 148.135723,5.35033764 148.831204,6.88039577 C149.526685,8.41045389 149.874421,10.1723126 149.874421,12.1660247 L149.874421,38.3159782 C149.874421,40.3560557 149.526685,42.1295056 148.831204,43.636381 C148.135723,45.1432564 147.220021,46.3951034 146.084068,47.3919594 C144.948116,48.3888155 143.673087,49.1422419 142.258942,49.6522613 C140.844798,50.1622806 139.419083,50.4172865 137.981756,50.4172865 C136.544428,50.4172865 135.118714,50.1622806 133.704569,49.6522613 C132.290424,49.1422419 131.015395,48.3888155 129.879443,47.3919594 C128.743491,46.3951034 127.827788,45.1432564 127.132307,43.636381 C126.436826,42.1295056 126.089091,40.3560557 126.089091,38.3159782 L126.089091,12.1660247 Z M133.182961,38.3159782 C133.182961,40.0314979 133.658199,41.2949361 134.60869,42.1063305 C135.55918,42.917725 136.683524,43.3234161 137.981756,43.3234161 C139.279987,43.3234161 140.404331,42.917725 141.354821,42.1063305 C142.305312,41.2949361 142.78055,40.0314979 142.78055,38.3159782 L142.78055,12.1660247 C142.78055,10.450505 142.305312,9.18706682 141.354821,8.37567236 C140.404331,7.56427791 139.279987,7.15858676 137.981756,7.15858676 C136.683524,7.15858676 135.55918,7.56427791 134.60869,8.37567236 C133.658199,9.18706682 133.182961,10.450505 133.182961,12.1660247 L133.182961,38.3159782 Z M159,39.6666667 L266,39.6666667 L266,44.6666667 L159,44.6666667 L159,39.6666667 Z M173.792537,12.5596396 L169.344969,12.5596396 L169.344969,11.5567568 C169.344969,10.5393343 169.105152,9.66000371 168.62551,8.91873874 C168.145868,8.17747377 167.339209,7.80684685 166.20551,7.80684685 C165.595056,7.80684685 165.09362,7.92312196 164.701185,8.15567568 C164.308751,8.38822939 164.003529,8.68618437 163.78551,9.04954955 C163.567491,9.41291473 163.41488,9.83441202 163.327672,10.3140541 C163.240464,10.7936961 163.196861,11.2951325 163.196861,11.8183784 C163.196861,12.4288319 163.218663,12.9448027 163.262266,13.3663063 C163.30587,13.7878099 163.414878,14.1511696 163.589294,14.4563964 C163.763709,14.7616231 164.018061,15.0305093 164.352357,15.2630631 C164.686653,15.4956168 165.144486,15.728167 165.72587,15.9607207 L169.126951,17.3124324 C170.115304,17.6903322 170.914696,18.1336311 171.525149,18.6423423 C172.135603,19.1510536 172.607971,19.7469636 172.942266,20.4300901 C173.276562,21.1132166 173.501845,21.8980736 173.618122,22.7846847 C173.734399,23.6712957 173.792537,24.6814358 173.792537,25.8151351 C173.792537,27.1232498 173.661727,28.3368713 173.400104,29.456036 C173.138481,30.5752008 172.709717,31.5344705 172.113798,32.3338739 C171.517879,33.1332773 170.725755,33.7655232 169.737402,34.2306306 C168.749048,34.6957381 167.542694,34.9282883 166.118303,34.9282883 C165.042742,34.9282883 164.039869,34.7393412 163.109654,34.3614414 C162.179439,33.9835417 161.380048,33.4675708 160.711456,32.8135135 C160.042864,32.1594562 159.512359,31.3818664 159.119924,30.4807207 C158.72749,29.5795751 158.531275,28.605771 158.531275,27.5592793 L158.531275,25.9023423 L162.978843,25.9023423 L162.978843,27.2976577 C162.978843,28.1115957 163.21866,28.8455823 163.698303,29.4996396 C164.177945,30.153697 164.984603,30.4807207 166.118303,30.4807207 C166.874102,30.4807207 167.462745,30.3717128 167.884248,30.1536937 C168.305752,29.9356746 168.625509,29.6304524 168.843528,29.238018 C169.061547,28.8455836 169.199624,28.3586816 169.257762,27.7772973 C169.3159,27.195913 169.344969,26.5563999 169.344969,25.8587387 C169.344969,25.0448007 169.3159,24.3762188 169.257762,23.852973 C169.199624,23.3297271 169.076081,22.9082298 168.887131,22.5884685 C168.698181,22.2687071 168.436562,22.0070881 168.102266,21.8036036 C167.767971,21.6001191 167.324672,21.3821033 166.772357,21.1495495 L163.589294,19.8414414 C161.670725,19.0565727 160.384432,18.0173638 159.730375,16.7237838 C159.076317,15.4302037 158.749294,13.8096193 158.749294,11.861982 C158.749294,10.6992134 158.909172,9.59459983 159.228933,8.54810811 C159.548695,7.50161639 160.021062,6.60048426 160.64605,5.84468468 C161.271038,5.08888511 162.063163,4.48570796 163.022447,4.03513514 C163.981731,3.58456231 165.100879,3.35927928 166.379924,3.35927928 C167.484554,3.35927928 168.494694,3.56276073 169.410375,3.96972973 C170.326055,4.37669873 171.110912,4.91447113 171.764969,5.58306306 C172.419027,6.25165499 172.920463,7.00017604 173.269294,7.82864865 C173.618124,8.65712126 173.792537,9.50738303 173.792537,10.3794595 L173.792537,12.5596396 Z M180.444694,7.80684685 L175.299469,7.80684685 L175.299469,3.6209009 L190.037487,3.6209009 L190.037487,7.80684685 L184.892262,7.80684685 L184.892262,34.6666667 L180.444694,34.6666667 L180.444694,7.80684685 Z M192.416491,3.6209009 L199.567482,3.6209009 C204.799941,3.6209009 207.416131,6.65858824 207.416131,12.7340541 C207.416131,14.5363453 207.13271,16.0842578 206.565861,17.3778378 C205.999011,18.6714179 205.003405,19.7106267 203.579014,20.4954955 L208.37541,34.6666667 L203.666221,34.6666667 L199.523879,21.4111712 L196.864059,21.4111712 L196.864059,34.6666667 L192.416491,34.6666667 L192.416491,3.6209009 Z M196.864059,17.4868468 L199.393068,17.4868468 C200.177937,17.4868468 200.802915,17.3778389 201.268023,17.1598198 C201.73313,16.9418007 202.089223,16.6293113 202.336311,16.2223423 C202.583399,15.8153733 202.750545,15.3139369 202.837752,14.718018 C202.92496,14.1220991 202.968563,13.4317156 202.968563,12.6468468 C202.968563,11.8619781 202.92496,11.1715946 202.837752,10.5756757 C202.750545,9.97975678 202.568865,9.47105316 202.292707,9.04954955 C202.01655,8.62804594 201.631389,8.31555657 201.137212,8.11207207 C200.643035,7.90858757 199.988988,7.80684685 199.17505,7.80684685 L196.864059,7.80684685 L196.864059,17.4868468 Z M211.408468,3.6209009 L224.663964,3.6209009 L224.663964,7.80684685 L215.856036,7.80684685 L215.856036,16.92 L223.53027,16.92 L223.53027,21.1059459 L215.856036,21.1059459 L215.856036,30.2190991 L224.663964,30.2190991 L224.663964,34.6666667 L211.408468,34.6666667 L211.408468,3.6209009 Z M232.885851,3.6209009 L236.592157,3.6209009 L243.52513,34.6666667 L239.077563,34.6666667 L237.769455,27.9953153 L231.708554,27.9953153 L230.400446,34.6666667 L225.952878,34.6666667 L232.885851,3.6209009 Z M234.760806,12.5596396 L234.673599,12.5596396 L232.493419,23.8093694 L236.940986,23.8093694 L234.760806,12.5596396 Z M246.122153,3.6209009 L250.395306,3.6209009 L256.107378,20.0594595 L256.194585,20.0594595 L261.863054,3.6209009 L266.17981,3.6209009 L266.17981,34.6666667 L261.732243,34.6666667 L261.732243,15.7863063 L261.645036,15.7863063 L257.241072,29.129009 L255.017288,29.129009 L250.656927,15.7863063 L250.56972,15.7863063 L250.56972,34.6666667 L246.122153,34.6666667 L246.122153,3.6209009 Z" id="PHONO"></path>
                </g>
            </g>
        </g>
    </g>
</svg>